<svg width="224" height="224" viewBox="0 0 224 224" fill="none" xmlns="http://www.w3.org/2000/svg">
<g opacity="0.5">
<rect width="56" height="56" transform="matrix(-4.37114e-08 1 1 4.37114e-08 168 168)" fill="white"/>
<rect width="56" height="28" transform="matrix(-4.37114e-08 1 1 4.37114e-08 168 168)" fill="white"/>
<path d="M224 196C224 211.464 211.464 224 196 224L196 168C211.464 168 224 180.536 224 196Z" fill="white"/>
<rect x="224" y="112" width="56" height="56" transform="rotate(90 224 112)" fill="#FF9E66"/>
<rect x="168" y="112" width="56" height="56" transform="rotate(-90 168 112)" fill="#FFBE99"/>
<rect width="56" height="56" transform="matrix(4.37114e-08 -1 -1 -4.37114e-08 224 56)" fill="#FF9E66"/>
<path d="M224 56C216.646 56 209.364 54.5515 202.57 51.7373C195.775 48.923 189.602 44.7981 184.402 39.598C179.202 34.3979 175.077 28.2245 172.263 21.4303C169.448 14.636 168 7.35402 168 0L224 6.7203e-06L224 56Z" fill="#FFBE99"/>
<rect width="56" height="56" transform="matrix(-4.37114e-08 1 1 4.37114e-08 112 168)" fill="white"/>
<rect x="168" y="112" width="56" height="56" transform="rotate(90 168 112)" fill="white"/>
<path d="M168 168C160.646 168 153.364 166.552 146.57 163.737C139.775 160.923 133.602 156.798 128.402 151.598C123.202 146.398 119.077 140.225 116.263 133.43C113.448 126.636 112 119.354 112 112L168 112L168 168Z" fill="#FF9E66"/>
<rect x="112" y="112" width="56" height="56" transform="rotate(-90 112 112)" fill="#FF9E66"/>
<path d="M168 56C160.646 56 153.364 57.4485 146.57 60.2627C139.775 63.077 133.602 67.2019 128.402 72.402C123.202 77.6021 119.077 83.7755 116.263 90.5697C113.448 97.364 112 104.646 112 112L168 112L168 56Z" fill="#FFBE99"/>
<rect width="56" height="56" transform="matrix(4.37114e-08 -1 -1 -4.37114e-08 168 56)" fill="#FF9E66"/>
<rect width="56" height="28" transform="matrix(4.37114e-08 -1 -1 -4.37114e-08 140 56)" fill="white"/>
<path d="M168 28C168 12.536 155.464 -5.47967e-07 140 -1.22392e-06L140 56C155.464 56 168 43.464 168 28Z" fill="white"/>
<rect width="56" height="56" transform="matrix(-4.37114e-08 1 1 4.37114e-08 56 168)" fill="white"/>
<rect width="56" height="28" transform="matrix(-4.37114e-08 1 1 4.37114e-08 56 168)" fill="#FFBE99"/>
<path d="M112 196C112 211.464 99.464 224 84 224L84 168C99.464 168 112 180.536 112 196Z" fill="#FFBE99"/>
<rect x="112" y="112" width="56" height="56" transform="rotate(90 112 112)" fill="white"/>
<path d="M56 168C63.354 168 70.636 166.552 77.4303 163.737C84.2245 160.923 90.3979 156.798 95.598 151.598C100.798 146.398 104.923 140.225 107.737 133.43C110.552 126.636 112 119.354 112 112L56 112L56 168Z" fill="#FF9E66"/>
<rect x="56" y="112" width="56" height="56" transform="rotate(-90 56 112)" fill="#FF9E66"/>
<rect width="56" height="56" transform="matrix(4.37114e-08 -1 -1 -4.37114e-08 112 56)" fill="white"/>
<rect width="56" height="56" transform="matrix(-4.37114e-08 1 1 4.37114e-08 0 168)" fill="url(#paint0_linear_212_92)"/>
<rect x="56" y="112" width="56" height="56" transform="rotate(90 56 112)" fill="url(#paint1_linear_212_92)"/>
<rect y="112" width="56" height="56" transform="rotate(-90 0 112)" fill="url(#paint2_linear_212_92)"/>
<rect y="112" width="56" height="28" transform="rotate(-90 0 112)" fill="url(#paint3_linear_212_92)"/>
<path d="M56 84C56 99.464 43.464 112 28 112L28 56C43.464 56 56 68.536 56 84Z" fill="#FFBE99"/>
<rect width="56" height="56" transform="matrix(4.37114e-08 -1 -1 -4.37114e-08 56 56)" fill="url(#paint4_linear_212_92)"/>
<rect width="56" height="28" transform="matrix(4.37114e-08 -1 -1 -4.37114e-08 56 56)" fill="white"/>
<path d="M8.5 32.25C8.5 19.1332 19.1332 8.5 32.25 8.5L32.25 56C19.1332 56 8.5 45.3668 8.5 32.25Z" fill="url(#paint5_linear_212_92)"/>
</g>
<defs>
<linearGradient id="paint0_linear_212_92" x1="28" y1="0" x2="28" y2="56" gradientUnits="userSpaceOnUse">
<stop stop-color="#FFBE99" stop-opacity="0"/>
<stop offset="1" stop-color="#FFBE99"/>
</linearGradient>
<linearGradient id="paint1_linear_212_92" x1="84" y1="112" x2="84" y2="168" gradientUnits="userSpaceOnUse">
<stop stop-color="#FF9E66"/>
<stop offset="1" stop-color="#FF9E66" stop-opacity="0"/>
</linearGradient>
<linearGradient id="paint2_linear_212_92" x1="28" y1="112" x2="28" y2="168" gradientUnits="userSpaceOnUse">
<stop stop-color="#FF9E66" stop-opacity="0"/>
<stop offset="0.766167" stop-color="#FF9E66"/>
</linearGradient>
<linearGradient id="paint3_linear_212_92" x1="28" y1="112" x2="28" y2="140" gradientUnits="userSpaceOnUse">
<stop stop-color="#FFBE99" stop-opacity="0"/>
<stop offset="1" stop-color="#FFBE99"/>
</linearGradient>
<linearGradient id="paint4_linear_212_92" x1="28" y1="0" x2="28" y2="56" gradientUnits="userSpaceOnUse">
<stop stop-color="#FFBE99"/>
<stop offset="0.159375" stop-color="#FFBE99" stop-opacity="0"/>
</linearGradient>
<linearGradient id="paint5_linear_212_92" x1="8.5" y1="32.25" x2="32.25" y2="32.25" gradientUnits="userSpaceOnUse">
<stop stop-color="white"/>
<stop offset="1" stop-color="white" stop-opacity="0"/>
</linearGradient>
</defs>
</svg>
