<svg width="73" height="73" viewBox="0 0 73 73" fill="none" xmlns="http://www.w3.org/2000/svg">
<g opacity="0.9">
<path d="M43.5259 1.33203C43.6954 1.3502 43.8589 1.36836 44.0284 1.39258C43.865 1.36836 43.6954 1.3502 43.5259 1.33203Z" fill="#262626"/>
<path d="M53.9947 4.7109L53.0804 4.22045C53.0562 4.20834 53.0259 4.19018 53.0017 4.17807C52.9048 4.12963 52.8079 4.08118 52.7111 4.03274C52.7716 4.06301 52.8382 4.0933 52.9048 4.12357C52.7595 4.04486 52.6142 3.9722 52.4689 3.89349L51.827 3.60285C51.8815 3.62707 51.9421 3.65734 51.9966 3.68156C51.2094 3.31827 50.4102 2.99131 49.5867 2.70068C46.0689 1.87116 42.442 1.52603 36.1995 1.4231C47.7703 1.99225 51.7423 3.64524 53.0743 4.21439C53.3831 4.37182 53.6919 4.5353 53.9947 4.7109Z" fill="#262626"/>
<path d="M44.7852 1.05346C44.3311 0.944472 43.877 0.835484 43.4895 0.750717L43.2473 0.702267C41.9152 0.490347 39.2693 0.908146 36.1995 1.43492C36.4659 1.39859 36.7262 1.36831 36.9926 1.33804C42.0727 0.756772 43.544 0.853655 44.7852 1.05952V1.05346Z" fill="#262626"/>
<path d="M41.0373 0.326664C40.6377 0.272171 40.1412 0.217677 39.7537 0.175293C39.7537 0.175293 39.7416 0.175293 39.7355 0.175293C39.6628 0.193458 39.6507 0.199517 36.1995 1.42865C40.2078 0.362998 40.6013 0.356938 41.1402 0.344828C41.11 0.344828 41.0736 0.33878 41.0373 0.332725V0.326664Z" fill="#262626"/>
<path d="M23.9266 70.2907C24.0114 70.3209 24.1022 70.3512 24.193 70.3875C24.8349 70.6055 25.6341 70.8538 26.2456 71.0415C26.8814 71.2231 27.7351 71.4229 28.377 71.5743C20.0273 69.5338 12.9007 64.9624 7.20312 57.9751L8.80766 59.955C9.00747 60.1791 9.18306 60.3789 9.3526 60.5605C9.94597 61.1781 10.6483 61.8926 11.3628 62.5828C11.8048 62.9885 12.3558 63.4729 13.1187 64.151C13.5123 64.4659 13.9725 64.8171 14.4447 65.1682C18.4954 68.1533 21.2625 69.2553 23.9327 70.2967L23.9266 70.2907Z" fill="#262626"/>
<path d="M38.0162 0.0968614C37.9617 0.0786968 37.8951 0.0544922 37.8406 0.0363276C37.8406 0.0363276 37.8346 0.0363276 37.8285 0.0363276C37.4531 0.0181631 37.223 0.0121031 37.1988 0.0121031C36.9869 0.0121031 36.7205 0 36.4964 0C36.9203 0.0181646 36.9324 0.0302691 37.1261 0.278518C37.0454 0.569151 36.7386 0.952622 36.2058 1.42894C37.9072 0.48438 37.9617 0.302726 38.0223 0.0968614H38.0162Z" fill="#262626"/>
<path d="M2.43779 49.4621C9.07391 65.1321 25.6945 71.1325 31.5677 72.1194C31.598 72.1194 31.6222 72.1254 31.6525 72.1315C31.9613 72.1678 32.3488 72.2102 32.6515 72.2405L33.2691 72.295C33.2691 72.295 33.2933 72.295 33.2994 72.295C29.836 71.9741 6.01621 64.9444 0.651611 43.3225C0.71216 43.6434 0.766654 43.9583 0.827202 44.2489C1.22682 45.7566 1.83836 47.7304 2.35303 49.2321C2.3833 49.3108 2.41357 49.3834 2.43779 49.4621Z" fill="#262626"/>
<path d="M35.1883 0.278323C36.0118 0.587121 36.0542 0.768763 36.1995 1.42874C36.7989 0.0785094 35.5516 0.0542974 34.4497 0.0361328C34.0621 0.0542974 33.5475 0.0906169 33.166 0.120891L32.8027 0.151177C33.3658 0.114847 34.5405 0.0361291 35.1883 0.278323Z" fill="#262626"/>
<path d="M35.382 72.404C35.5213 72.404 35.6545 72.4101 35.7938 72.4101H35.8543C35.8543 72.4101 35.9028 72.4101 35.9209 72.4101C36.0783 72.4101 36.2297 72.4101 36.3871 72.4101C36.5203 72.4101 36.6536 72.4101 36.7686 72.4101C36.7747 72.4101 36.7807 72.4101 36.7868 72.4101C34.0379 72.3616 -5.29447 57.4546 1.06312 27.1682C1.06312 27.1682 1.06312 27.1682 1.06312 27.1743C0.845148 28.028 0.633228 29.1784 0.451582 30.0382C0.275991 31.1402 0.130675 32.6236 0.00957775 33.7317C-0.638292 60.8998 31.7855 72.0589 35.382 72.404Z" fill="#262626"/>
<path d="M29.4545 0.629666C29.3818 0.641775 29.3031 0.659944 29.2305 0.672054C33.6566 -0.0848027 35.5033 1.00507 36.2057 1.42891C34.9523 0.0484041 32.7726 0.0726191 29.4606 0.629666H29.4545Z" fill="#262626"/>
<path d="M4.59962 18.4127C-11.3791 49.2198 33.3783 70.9688 38.7308 72.3191C38.7672 72.3191 38.8035 72.3191 38.8398 72.313L39.076 72.2949C39.1123 72.2949 39.1486 72.2888 39.191 72.2827C39.4635 72.2585 39.7904 72.2222 40.069 72.198C40.1053 72.198 40.1416 72.1919 40.1719 72.1859C33.8325 67.3662 26.1186 64.7384 20.0092 59.5554C17.0181 57.0185 10.0127 51.0786 5.91958 43.1347C-2.27264 27.2407 5.01741 17.1049 8.59583 12.7454C8.46867 12.8907 8.34758 13.036 8.22648 13.1753L7.621 13.8958C6.67644 15.1976 5.48363 16.9838 4.6299 18.3582C4.61779 18.3764 4.61173 18.3945 4.59962 18.4127Z" fill="#262626"/>
<path d="M27.8198 0.974633C27.8198 0.974633 27.8621 0.962524 27.8864 0.956469C27.8319 0.968579 27.7653 0.980687 27.7168 0.992797C27.3172 1.08362 26.7965 1.22288 26.4029 1.33187C25.5916 1.5559 24.5199 1.88892 23.7327 2.1856C23.2483 2.36725 22.6065 2.60944 22.1343 2.80925C21.5651 3.05145 20.8203 3.40263 20.2572 3.66299C19.682 3.9294 18.9373 4.32297 18.3924 4.64387C17.7505 5.01927 16.9574 5.50971 16.255 5.96383C9.01944 10.9409 3.30971 18.9273 4.09684 27.9308C5.96173 49.1713 30.0177 63.7393 39.0697 69.225C41.1606 70.4924 42.2666 71.3724 42.3877 71.8649C42.3877 71.8649 42.4301 71.8588 42.4483 71.8528C42.9448 71.7619 43.5684 71.6287 44.0649 71.5258C44.0831 71.5258 44.1013 71.5197 44.1194 71.5137C44.295 71.4531 44.4222 71.1988 44.5433 71.0535C44.1315 70.2603 43.3262 69.6912 38.9728 66.8393C27.7713 59.5009 16.4972 51.0604 9.91555 39.1021C-4.937 12.1035 23.8659 -1.8651 36.2057 1.42269C33.8141 0.496293 30.9017 0.393361 27.8258 0.968572L27.8198 0.974633Z" fill="#262626"/>
<path d="M40.341 63.8241C47.1588 68.6438 48.7815 69.7881 46.6259 70.8538C46.6502 70.8477 46.6744 70.8417 46.6925 70.8356C47.0256 70.7327 47.401 70.6055 47.7703 70.4844C48.0246 70.3997 48.2729 70.3089 48.5211 70.218C51.5728 68.8012 48.9147 66.8394 42.5571 62.159C35.5274 56.9821 26.7721 50.5397 19.3488 41.1184C-2.56975 13.3024 20.8262 -0.466349 36.1934 1.42882C18.7312 -2.35546 -18.8452 22.0093 40.3349 63.8241H40.341Z" fill="#262626"/>
<path d="M44.3493 58.4109C52.2993 64.5082 55.2783 66.7908 51.3305 69.0675C51.3608 69.0553 51.3911 69.0372 51.4214 69.0251C52.0814 68.7102 52.9048 68.2743 53.5406 67.9534C56.6164 66.1551 55.3873 64.0662 53.6011 62.0802C46.1234 53.7669 36.1934 48.2569 28.534 40.1495C3.88471 14.0531 20.4205 1.07145 36.1995 1.43475C20.1178 -0.0305296 -8.59435 17.8192 44.3493 58.417V58.4109Z" fill="#262626"/>
<path d="M50.495 53.3676C58.0697 59.4346 60.7701 62.6981 56.7255 65.9799C57.4157 65.4955 58.2937 64.8052 58.9839 64.2784C59.3291 63.9939 59.6924 63.6851 60.0375 63.3763C63.1799 60.5002 61.418 58.9441 40.2744 40.3194C9.62476 13.3268 23.4359 3.79649 33.4264 1.80444C24.3683 3.49375 -0.892523 12.1946 50.495 53.3676Z" fill="#262626"/>
<path d="M35.7939 1.45923C35.0492 1.52583 34.2499 1.64088 33.4204 1.80436C34.4861 1.60455 35.3216 1.50161 35.7939 1.45923Z" fill="#262626"/>
<path d="M36.1999 1.42871C36.1999 1.42871 36.0303 1.44081 35.7942 1.45898C35.9274 1.44687 36.0667 1.43477 36.1999 1.42871Z" fill="#262626"/>
<path d="M49.0842 41.4879C61.648 51.5995 66.3647 56.2254 62.2777 61.251C62.308 61.2207 62.3322 61.1965 62.3564 61.1662C62.9982 60.4759 63.7732 59.5617 64.3787 58.8654C64.3908 58.8472 64.4029 58.8351 64.415 58.8169C67.9935 54.1304 64.5725 49.1957 49.8228 37.7339C11.3382 7.83503 31.7249 2.25246 36.2055 1.43506C32.9419 1.84679 5.58002 6.47875 49.0902 41.4879H49.0842Z" fill="#262626"/>
<path d="M51.6819 33.3984C65.8987 44.0187 69.8101 49.4499 67.152 54.8811C67.261 54.6994 67.3639 54.5238 67.4669 54.3482L67.5637 54.1787C67.6364 54.0516 67.703 53.9365 67.7696 53.8215L68.581 52.2593C68.6778 52.0595 68.7747 51.8597 68.8716 51.6659C72.0443 44.388 60.0194 35.6327 52.0391 29.8261C26.0335 10.9047 29.073 3.94763 36.1996 1.44092C30.1145 3.02729 19.4337 9.32435 51.6819 33.4106V33.3984Z" fill="#262626"/>
<path d="M52.3719 25.1516C64.7844 33.8948 72.2197 39.7438 70.6758 47.0399C70.7484 46.7917 70.8271 46.5434 70.8937 46.3012C71.142 45.393 71.3902 44.3697 71.59 43.5523C72.6557 36.2805 65.1477 30.7342 52.8139 22.2998C44.6641 16.7233 29.4967 6.34525 36.1994 1.42871C25.6882 6.35131 45.7721 20.5015 52.3719 25.1516Z" fill="#262626"/>
<path d="M53.2867 18.7217C67.2735 27.7979 72.0265 31.9152 72.2808 38.1638C72.2869 38.0427 72.299 37.9155 72.305 37.7945L72.3474 36.2686L72.3111 34.7912C72.305 34.6217 72.299 34.4582 72.2869 34.2887C71.748 27.7313 63.0108 22.3243 51.9607 15.4944C44.1863 10.6929 35.3765 5.24356 36.206 1.43506C32.567 5.28595 45.04 13.3752 53.2928 18.7277L53.2867 18.7217Z" fill="#262626"/>
<path d="M52.378 12.9272C65.2628 20.2414 70.1127 23.7956 71.6567 29.1542C71.4629 28.2278 71.1481 27.0531 70.8877 26.0601C70.8272 25.8543 70.7666 25.6545 70.7061 25.4486C68.6111 19.9992 61.5935 16.0878 49.4051 9.68177C40.789 5.14668 37.9493 3.37261 36.1995 1.43506C37.2046 4.31717 43.5682 7.93191 52.378 12.9332V12.9272Z" fill="#262626"/>
<path d="M68.8657 20.7195C68.8112 20.6105 68.7628 20.5015 68.7083 20.3925L67.9756 18.9454L67.4852 18.0796C67.3944 17.9221 67.3035 17.7647 67.2067 17.6073C65.5476 15.0279 62.5444 13.1085 58.2455 10.8561C51.1431 7.13844 43.5261 4.63778 36.2058 1.42871C38.4885 2.88188 42.6845 4.80733 47.9946 7.24744C62.0843 13.7201 66.4256 16.5174 68.8718 20.7195H68.8657Z" fill="#262626"/>
<path d="M64.4696 13.6777C64.403 13.5929 64.3424 13.5203 64.2698 13.4294C64.2274 13.3749 64.185 13.3265 64.1366 13.272C64.0821 13.2054 64.0276 13.1388 63.9731 13.0722C63.4403 12.4546 62.8408 11.7825 62.3625 11.2436C59.214 8.01639 50.4102 4.7165 36.1995 1.42871C57.7547 7.88924 61.9265 10.9167 64.4696 13.6777Z" fill="#262626"/>
<path d="M58.56 7.79841C58.0333 7.39274 57.4581 6.9689 56.9616 6.6056C56.8586 6.53295 56.7557 6.46636 56.6528 6.3937C53.2318 4.23817 46.3595 2.56702 36.1995 1.42871C42.5207 2.36721 53.8251 4.48641 59.0081 8.16171C58.8567 8.03455 58.7054 7.91345 58.56 7.79841Z" fill="#262626"/>
<path d="M44.2161 1.42291C45.0577 1.53795 45.8933 1.68932 46.7046 1.87702C48.1517 2.11922 48.3334 2.17372 49.4354 2.53096C49.4051 2.51885 49.3688 2.50069 49.3385 2.49463C48.7875 2.27666 48.0367 2.02234 47.4736 1.82253H47.4615C46.1355 1.39264 44.5794 1.33815 42.775 1.2655C42.8598 1.27155 42.9385 1.28365 43.0233 1.2897C42.1029 1.20493 41.1644 1.15649 40.2138 1.15649C38.7546 1.22915 38.5609 1.24128 36.1995 1.43503C39.9535 1.2776 41.6488 1.30787 44.2161 1.42897V1.42291ZM43.5198 1.33815C43.6893 1.35632 43.8528 1.37448 44.0223 1.3987C43.8589 1.37448 43.6893 1.35632 43.5198 1.33815Z" fill="#262626"/>
</g>
</svg>
